# xmcd
#
# Track frame offsets: 
#        225
#        23985
#        50248
#        71158
#        84790
#        102865
#        115688
#        138118
#        150963
#        171195
#        190575
#        203533
#        220083
#        243485
#        258153
#
# Disc length: 3646 seconds
#
# Revision: 3
# Processed by: cddbd v1.5.2PL0 Copyright (c) Steve Scherf et al.
# Submitted via: ExactAudioCopy v0.99pb4
#
DISCID=bf0e3b0f
DTITLE=Various Artist - Marquee Collection 1958-1983
DYEAR=1984
DGENRE=Rock
TTITLE0=Rod Stewart - Maggie May
TTITLE1=Dire Straits - Sultans Of Swing
TTITLE2=Peter Frampton - Show Me The Way
TTITLE3=Adam And The Ants - Young Parisians
TTITLE4=Roxy Music - Love Is The Drug
TTITLE5=Them - Here Comes The Night
TTITLE6=Derek And The Dominoes - Layla
TTITLE7=Cream - Strange Brew
TTITLE8=Moody Blues - Nights In White Satin
TTITLE9=Humble Pie - Natural Born Bugie
TTITLE10=Fleetwood Mac - Man Of The World
TTITLE11=Nazareth - Broken Down Angel
TTITLE12=Genesis - Turn It On Again (Live)
TTITLE13=Thin Lizzy - The Boys Are Back In Town
TTITLE14=Jimi Hendrix Experience - Hey Joe
EXTD=
EXTT0=
EXTT1=
EXTT2=
EXTT3=
EXTT4=
EXTT5=
EXTT6=
EXTT7=
EXTT8=
EXTT9=
EXTT10=
EXTT11=
EXTT12=
EXTT13=
EXTT14=
PLAYORDER=
